<?xml version="1.0" encoding="UTF-8"?><svg id="a" xmlns="http://www.w3.org/2000/svg" viewBox="0 0 85.04 80.48"><path d="M68.44,71.06H16.6c-6.09,0-11.05-4.96-11.05-11.05V20.47c0-6.09,4.96-11.05,11.05-11.05h12.24c6.09,0,11.04,4.95,11.05,11.03h28.55c6.09,0,11.05,4.96,11.05,11.05v28.51c0,6.09-4.96,11.05-11.05,11.05ZM16.6,15.06c-2.98,0-5.41,2.43-5.41,5.41V60.01c0,2.98,2.43,5.41,5.41,5.41h51.84c2.98,0,5.41-2.43,5.41-5.41V31.5c0-2.98-2.43-5.41-5.41-5.41H34.25v-5.62c0-2.98-2.43-5.41-5.41-5.41h-12.24Z"/></svg>